<svg width="56" height="108" fill="none" xmlns="http://www.w3.org/2000/svg"><path d="M47.805 87H.894L3 74.554 29.615 51.1c4.914-4.34 7.595-7.819 8.042-10.435.319-1.596.063-2.904-.766-3.925-.83-1.022-2.075-1.532-3.734-1.532-3.83 0-7.212 2.425-10.148 7.276l-13.882-8.52c3-5.043 6.797-8.872 11.393-11.49 4.595-2.616 9.541-3.924 14.839-3.924 6.255 0 11.329 2.138 15.222 6.414 4.02 4.212 5.457 9.605 4.308 16.18-.702 3.829-2.042 7.212-4.02 10.147-1.98 2.936-4.98 6.16-9 9.67l-11.105 9.478h19.913L47.805 87z" fill="url(#paint0_linear)"/><path d="M47.805 87v1.33h1.118l.192-1.103-1.31-.227zM.894 87l-1.311-.222-.263 1.552H.894V87zM3 74.554l-.88-.997-.352.311-.079.464L3 74.554zM29.615 51.1l.879.998v-.001l-.88-.997zm8.042-10.435l-1.304-.261-.004.018-.003.019 1.31.224zm-.766-3.925l1.032-.839-1.032.839zm-13.882 5.744l-.696 1.133 1.14.7.693-1.145-1.137-.688zm-13.882-8.52l-1.143-.68-.67 1.126 1.118.686.695-1.133zm11.393-11.49l-.658-1.155.658 1.156zm30.06 2.49l-.982.895.01.012.011.011.962-.918zm4.31 16.18l1.307.24.002-.012-1.31-.229zM50.867 51.29l-1.102-.743 1.102.743zm-9 9.67l.864 1.011.006-.005.005-.005-.874-1.001zm-11.105 9.478l-.863-1.012-2.743 2.341h3.607v-1.33zm19.914 0l1.31.227.27-1.557h-1.58v1.33zM47.805 85.67H.894v2.66h46.91v-2.66zm-45.6 1.552L4.31 74.776l-2.622-.444-2.106 12.446 2.622.444zm1.674-11.67l26.615-23.456-1.759-1.995L2.121 73.557l1.758 1.995zm26.616-23.456c2.493-2.202 4.459-4.219 5.87-6.05 1.395-1.811 2.326-3.54 2.602-5.159l-2.621-.447c-.17.998-.804 2.317-2.088 3.983-1.27 1.648-3.102 3.54-5.524 5.68l1.76 1.993zm8.465-11.172c.377-1.883.1-3.624-1.037-5.024l-2.064 1.677c.521.642.755 1.518.494 2.826l2.607.521zM37.923 35.9c-1.147-1.41-2.82-2.023-4.766-2.023v2.66c1.373 0 2.189.408 2.702 1.04l2.064-1.677zm-4.766-2.023c-4.494 0-8.234 2.876-11.286 7.917l2.275 1.377c2.82-4.66 5.846-6.635 9.01-6.635v-2.659zm-9.453 7.472L9.823 32.83l-1.391 2.266 13.881 8.52 1.391-2.266zM10.27 34.642c2.895-4.867 6.534-8.522 10.908-11.013l-1.316-2.31c-4.817 2.742-8.773 6.745-11.878 11.963l2.286 1.36zm10.908-11.013c4.394-2.502 9.114-3.75 14.18-3.75v-2.66c-5.527 0-10.7 1.368-15.496 4.1l1.316 2.31zm14.18-3.75c5.916 0 10.62 2.004 14.24 5.98l1.966-1.791c-4.167-4.578-9.61-6.85-16.205-6.85v2.66zM49.62 25.88c3.684 3.86 5.048 8.805 3.96 15.032l2.62.458c1.21-6.92-.298-12.76-4.656-17.326L49.62 25.88zm3.962 15.022c-.672 3.667-1.95 6.875-3.816 9.644l2.206 1.486c2.09-3.102 3.494-6.66 4.226-10.65l-2.616-.48zm-3.816 9.644c-1.89 2.805-4.797 5.942-8.77 9.411l1.748 2.003c4.069-3.552 7.16-6.86 9.228-9.928l-2.205-1.486zm-8.76 9.401L29.9 69.426l1.727 2.023 11.105-9.478-1.726-2.023zm-10.242 11.82h19.914v-2.66H30.764v2.66zm18.604-1.558l-2.872 16.563 2.62.454 2.872-16.562-2.62-.455z" fill="#fff" fill-opacity=".2"/><ellipse cx="28.5" cy="87" rx="25.5" ry="4" fill="url(#paint1_diamond)"/><defs><radialGradient id="paint1_diamond" cx="0" cy="0" r="1" gradientUnits="userSpaceOnUse" gradientTransform="matrix(0 4 -25.5 0 28.5 87)"><stop stop-color="#FDFFFD"/><stop offset="1" stop-color="#35FF3D" stop-opacity="0"/></radialGradient><linearGradient id="paint0_linear" x1="17.667" y1="24.33" x2="27.794" y2="77.625" gradientUnits="userSpaceOnUse"><stop stop-color="#04CD25"/><stop offset=".188" stop-color="#019402"/><stop offset=".557" stop-color="#027F03"/><stop offset=".824" stop-color="#046B07"/><stop offset="1" stop-color="#01880E"/></linearGradient></defs></svg>