<svg width="56" height="108" viewBox="0 0 56 108" fill="none" xmlns="http://www.w3.org/2000/svg">
<path d="M47.8046 87H0.893802L3 74.5543L29.6147 51.0989C34.5291 46.7589 37.2098 43.2804 37.6565 40.6636C37.9756 39.068 37.7204 37.7596 36.8906 36.7385C36.0609 35.7173 34.8164 35.2067 33.1569 35.2067C29.3275 35.2067 25.9448 37.632 23.0089 42.4826L9.12712 33.9621C12.1269 28.92 15.9244 25.0906 20.5197 22.4738C25.1151 19.857 30.0615 18.5486 35.3589 18.5486C41.6136 18.5486 46.6876 20.6867 50.5809 24.9629C54.6018 29.1753 56.0379 34.5684 54.8891 41.1423C54.187 44.9718 52.8467 48.3545 50.8681 51.2904C48.8896 54.2263 45.8898 57.4494 41.8689 60.9597L30.7635 70.4376H50.6767L47.8046 87Z" fill="url(#paint0_linear)"/>
<path d="M47.8046 87V88.3297H48.9235L49.1147 87.2272L47.8046 87ZM0.893802 87L-0.417227 86.7781L-0.679795 88.3297H0.893802V87ZM3 74.5543L2.12085 73.5567L1.76755 73.8681L1.68897 74.3324L3 74.5543ZM29.6147 51.0989L30.4938 52.0965L30.4948 52.0956L29.6147 51.0989ZM37.6565 40.6636L36.3527 40.4029L36.349 40.4213L36.3458 40.4399L37.6565 40.6636ZM36.8906 36.7385L37.9226 35.9L37.9226 35.9L36.8906 36.7385ZM23.0089 42.4826L22.3133 43.6159L23.4536 44.3158L24.1464 43.1711L23.0089 42.4826ZM9.12712 33.9621L7.98439 33.2823L7.31387 34.4093L8.43155 35.0953L9.12712 33.9621ZM20.5197 22.4738L19.8618 21.3183L19.8618 21.3183L20.5197 22.4738ZM50.5809 24.9629L49.5977 25.8581L49.6083 25.8697L49.6191 25.881L50.5809 24.9629ZM54.8891 41.1423L56.197 41.3821L56.1989 41.3712L54.8891 41.1423ZM50.8681 51.2904L49.7655 50.5473L49.7655 50.5473L50.8681 51.2904ZM41.8689 60.9597L42.7321 61.9711L42.7378 61.9663L42.7434 61.9614L41.8689 60.9597ZM30.7635 70.4376L29.9003 69.4262L27.1573 71.7673H30.7635V70.4376ZM50.6767 70.4376L51.9868 70.6648L52.2568 69.108H50.6767V70.4376ZM47.8046 85.6703H0.893802V88.3297H47.8046V85.6703ZM2.20483 87.2219L4.31103 74.7762L1.68897 74.3324L-0.417227 86.7781L2.20483 87.2219ZM3.87915 75.5518L30.4938 52.0965L28.7355 50.1013L2.12085 73.5567L3.87915 75.5518ZM30.4948 52.0956C32.9878 49.894 34.9537 47.877 36.3642 46.0467C37.7604 44.2349 38.6908 42.5065 38.9672 40.8874L36.3458 40.4399C36.1755 41.4376 35.5422 42.7568 34.2578 44.4234C32.9877 46.0715 31.1561 47.9637 28.7345 50.1022L30.4948 52.0956ZM38.9604 40.9244C39.3371 39.0408 39.0604 37.3004 37.9226 35.9L35.8587 37.5769C36.3803 38.2189 36.6142 39.0953 36.3527 40.4029L38.9604 40.9244ZM37.9226 35.9C36.7764 34.4892 35.1027 33.877 33.1569 33.877V36.5364C34.53 36.5364 35.3455 36.9453 35.8587 37.5769L37.9226 35.9ZM33.1569 33.877C28.6626 33.877 24.9227 36.7527 21.8713 41.7941L24.1464 43.1711C26.9669 38.5113 29.9923 36.5364 33.1569 36.5364V33.877ZM23.7044 41.3494L9.82269 32.8289L8.43155 35.0953L22.3133 43.6159L23.7044 41.3494ZM10.2698 34.642C13.1651 29.7755 16.8037 26.12 21.1777 23.6292L19.8618 21.3183C15.0451 24.0611 11.0886 28.0645 7.98439 33.2823L10.2698 34.642ZM21.1777 23.6292C25.5722 21.1268 30.2918 19.8782 35.3589 19.8782V17.2189C29.8312 17.2189 24.658 18.5871 19.8618 21.3183L21.1777 23.6292ZM35.3589 19.8782C41.2736 19.8782 45.9786 21.8829 49.5977 25.8581L51.5641 24.0677C47.3967 19.4904 41.9537 17.2189 35.3589 17.2189V19.8782ZM49.6191 25.881C53.303 29.7404 54.6675 34.686 53.5792 40.9134L56.1989 41.3712C57.4083 34.4509 55.9007 28.6102 51.5427 24.0448L49.6191 25.881ZM53.5812 40.9026C52.9088 44.57 51.6319 47.7778 49.7655 50.5473L51.9708 52.0335C54.0615 48.9312 55.4652 45.3736 56.1969 41.3821L53.5812 40.9026ZM49.7655 50.5473C47.8752 53.3522 44.9677 56.4894 40.9945 59.9581L42.7434 61.9614C46.812 58.4094 49.9039 55.1004 51.9708 52.0335L49.7655 50.5473ZM41.0057 59.9483L29.9003 69.4262L31.6267 71.449L42.7321 61.9711L41.0057 59.9483ZM30.7635 71.7673H50.6767V69.108H30.7635V71.7673ZM49.3665 70.2104L46.4945 86.7728L49.1147 87.2272L51.9868 70.6648L49.3665 70.2104Z" fill="white" fill-opacity="0.2"/>
<ellipse cx="28.5" cy="87" rx="25.5" ry="4" fill="url(#paint1_diamond)"/>
<defs>
<linearGradient id="paint0_linear" x1="17.6667" y1="24.3297" x2="27.7941" y2="77.6254" gradientUnits="userSpaceOnUse">
<stop stop-color="#04CD25"/>
<stop offset="0.188179" stop-color="#019402"/>
<stop offset="0.557292" stop-color="#027F03"/>
<stop offset="0.824291" stop-color="#046B07"/>
<stop offset="1" stop-color="#01880E"/>
</linearGradient>
<radialGradient id="paint1_diamond" cx="0" cy="0" r="1" gradientUnits="userSpaceOnUse" gradientTransform="translate(28.5 87) rotate(90) scale(4 25.5)">
<stop stop-color="#FDFFFD"/>
<stop offset="1" stop-color="#35FF3D" stop-opacity="0"/>
</radialGradient>
</defs>
</svg>
