<svg width="162" height="34" viewBox="0 0 162 34" fill="none" xmlns="http://www.w3.org/2000/svg">
<g clip-path="url(#clip0)">
<path d="M12.1292 15.3L12.9185 18.9488H18.6508L20.6031 15.5488L19.0246 24.4634H26.6677L30.9046 0.331696H22.8877L17.28 9.95121L15.0785 0.331696H7.14463L2.86617 24.4634H10.5092L12.1292 15.3Z" fill="white"/>
<path d="M51.2169 24.4634H52.2139H54.6646H60.6877L65.0492 18.9488L67.9985 24.4634H76.14L69.8262 12.7707L79.7123 0.331696H70.2415L66.0462 5.63901L63.2631 0.331696H55.1215L61.2277 11.7756L54.1246 20.7732L51.2169 24.4634Z" fill="white"/>
<path d="M36.4708 24.4634L38.8385 18.9488H42.66L43.1169 24.4634H48.4338H50.8846L50.3446 20.8146L47.2708 0.373169H40.6246L28.5785 24.4634H36.4708ZM40.5831 14.5951L42.1615 10.9878L42.4108 14.5951H40.5831Z" fill="white"/>
<path d="M85.9431 27.1171L89.0169 9.82686H81.4154L77.1369 33.8756H94.3338L95.5385 27.1171H85.9431Z" fill="#0A9F30"/>
<path d="M101.229 9.78537L96.9507 33.8341H104.594L108.872 9.78537H101.229V9.78537Z" fill="#0A9F30"/>
<path d="M124.532 9.78537L122.746 19.9854L117.263 9.78537H111.448L107.169 33.8341H114.812L116.598 23.7171L121.998 33.8341H127.897L132.175 9.78537H124.532V9.78537Z" fill="#0A9F30"/>
<path d="M150.162 16.5854L151.325 9.82686H134.751L130.472 33.8756H147.088L148.251 27.1171H139.278L139.652 24.8366H146.049L147.212 18.4512H140.815L141.106 16.5854H150.162V16.5854Z" fill="#0A9F30"/>
<path d="M81.8723 7.17316L83.0769 0.414627H154.44L151.823 7.17316H81.8723Z" fill="white"/>
<path d="M159.466 1.28537C159.798 1.28537 160.131 1.3683 160.463 1.49269C160.754 1.61708 161.003 1.78293 161.294 2.03171C161.543 2.28049 161.709 2.52927 161.834 2.86098C161.959 3.15122 162.042 3.48293 162.042 3.8561C162.042 4.3122 161.958 4.72683 161.709 5.1C161.46 5.47317 161.169 5.80488 160.795 6.0122C160.38 6.26098 159.965 6.34391 159.549 6.34391C159.092 6.34391 158.677 6.26098 158.303 6.0122C157.888 5.76342 157.597 5.47317 157.389 5.1C157.14 4.72683 157.057 4.27074 157.057 3.8561C157.057 3.44147 157.14 2.98537 157.389 2.6122C157.638 2.23903 157.929 1.90732 158.303 1.7C158.594 1.3683 159.009 1.28537 159.466 1.28537ZM159.466 1.78293C159.092 1.78293 158.76 1.86586 158.428 2.03171C158.137 2.19756 157.888 2.44635 157.722 2.73659C157.514 3.02683 157.472 3.4 157.472 3.73171C157.472 4.06342 157.555 4.43659 157.722 4.72683C157.929 5.01708 158.137 5.26586 158.469 5.43171C158.76 5.59756 159.134 5.68049 159.508 5.68049C159.882 5.68049 160.214 5.59756 160.546 5.43171C160.837 5.26586 161.086 5.01708 161.252 4.72683C161.419 4.43659 161.502 4.06342 161.502 3.73171C161.502 3.4 161.419 3.02683 161.252 2.73659C161.086 2.44635 160.837 2.19756 160.546 2.03171C160.172 1.86586 159.84 1.78293 159.466 1.78293ZM158.885 5.1H158.345V2.44635H159.591C159.798 2.44635 159.965 2.48781 160.089 2.52927C160.214 2.6122 160.338 2.69513 160.38 2.77805C160.463 2.86098 160.463 3.02683 160.463 3.15122C160.463 3.35854 160.38 3.52439 160.255 3.64878C160.131 3.77317 159.965 3.89756 159.715 3.89756C159.84 3.93903 159.923 3.98049 160.006 4.10488C160.089 4.18781 160.172 4.35366 160.297 4.51952L160.629 5.05854H159.965L159.715 4.64391C159.632 4.43659 159.508 4.3122 159.466 4.22927C159.383 4.14634 159.342 4.06342 159.217 4.02195C159.134 3.98049 159.051 3.93903 158.968 3.93903H158.843V5.1H158.885ZM158.885 2.90244V3.60732H159.3C159.508 3.60732 159.674 3.56586 159.757 3.52439C159.84 3.44147 159.923 3.35854 159.923 3.23415C159.923 3.15122 159.882 3.02683 159.798 2.98537C159.715 2.90244 159.549 2.90244 159.383 2.90244H158.885Z" fill="white"/>
<path d="M2.36351 27.1171L0 33.8756H74.3469L75.5494 27.1171H2.36351Z" fill="#0A9F30"/>
</g>
<defs>
<clipPath id="clip0">
<rect width="162" height="34" fill="white"/>
</clipPath>
</defs>
</svg>
