<svg width="22" height="22" fill="none" xmlns="http://www.w3.org/2000/svg"><g clip-path="url(#clip0)"><path d="M21.244 15.061c-.058-.094-.413-.855-2.122-2.42-1.79-1.637-1.55-1.371.606-4.203C21.04 6.713 21.565 5.66 21.4 5.209c-.156-.429-1.122-.316-1.122-.316l-3.21.019s-.238-.032-.415.072c-.173.103-.284.34-.284.34s-.508 1.335-1.187 2.47c-1.43 2.395-2.003 2.521-2.237 2.372-.543-.346-.407-1.393-.407-2.135 0-2.321.357-3.289-.696-3.54-.35-.082-.606-.137-1.5-.147-1.145-.011-2.116.004-2.665.269-.366.176-.648.57-.476.592.213.028.693.128.949.47.33.441.317 1.434.317 1.434s.19 2.732-.442 3.072c-.434.233-1.028-.242-2.303-2.416C5.07 6.652 4.575 5.42 4.575 5.42s-.094-.229-.264-.351a1.343 1.343 0 00-.494-.196l-3.053.018s-.458.013-.626.21c-.15.175-.012.535-.012.535s2.39 5.513 5.096 8.292c2.482 2.548 5.3 2.38 5.3 2.38H11.8s.386-.042.582-.251c.182-.192.175-.553.175-.553s-.025-1.69.77-1.938c.785-.245 1.792 1.633 2.859 2.355.806.547 1.42.427 1.42.427l2.853-.04s1.494-.09.786-1.248z" fill="#fff"/></g><defs><clipPath id="clip0"><path fill="#fff" transform="translate(.068 .336)" d="M0 0h21.366v21.366H0z"/></clipPath></defs></svg>