<svg width="162" height="34" fill="none" xmlns="http://www.w3.org/2000/svg"><g clip-path="url(#clip0)"><path d="M12.13 15.3l.788 3.649h5.733l1.952-3.4-1.578 8.914h7.643L30.905.332h-8.017l-5.608 9.62-2.202-9.62H7.146l-4.28 24.131h7.643l1.62-9.163zm39.087 9.163h9.471l4.361-5.514L68 24.463h8.141l-6.314-11.692L79.712.33h-9.47l-4.196 5.31L63.263.332h-8.142l6.107 11.444-7.103 8.997-2.908 3.69zm-14.747 0l2.369-5.514h3.821l.457 5.514h7.767l-.54-3.648L47.272.373h-6.646l-12.047 24.09h7.893zm4.113-9.868l1.578-3.607.25 3.607h-1.828z" fill="#fff"/><path d="M85.943 27.117l3.074-17.29h-7.602l-4.278 24.049h17.197l1.204-6.759h-9.595zm15.286-17.332l-4.278 24.05h7.643l4.278-24.05h-7.643zm23.303 0l-1.786 10.2-5.483-10.2h-5.815l-4.279 24.05h7.643l1.786-10.118 5.4 10.117h5.899l4.278-24.049h-7.643zm25.63 6.8l1.163-6.758h-16.574l-4.279 24.049h16.616l1.163-6.759h-8.973l.374-2.28h6.397l1.163-6.386h-6.397l.291-1.866h9.056z" fill="#0A9F30"/><path d="M81.872 7.173L83.077.415h71.363l-2.617 6.758h-69.95zm77.594-5.888c.332 0 .665.083.997.208.291.124.54.29.831.539.249.248.415.497.54.829.125.29.208.622.208.995 0 .456-.084.87-.333 1.244-.249.373-.54.705-.914.912-.415.249-.83.332-1.246.332-.457 0-.872-.083-1.246-.332-.415-.249-.706-.539-.914-.912-.249-.373-.332-.83-.332-1.244 0-.415.083-.87.332-1.244.249-.373.54-.705.914-.912.291-.332.706-.415 1.163-.415zm0 .498a2.25 2.25 0 00-1.038.249 1.91 1.91 0 00-.706.705c-.208.29-.25.663-.25.995 0 .331.083.705.25.995.207.29.415.539.747.705.291.166.665.248 1.039.248a2.25 2.25 0 001.038-.248c.291-.166.54-.415.706-.705.167-.29.25-.664.25-.995a2.07 2.07 0 00-.25-.995 1.914 1.914 0 00-.706-.705c-.374-.166-.706-.25-1.08-.25zm-.581 3.317h-.54V2.446h1.246c.207 0 .374.042.498.083.125.083.249.166.291.249.083.083.083.249.083.373a.685.685 0 01-.208.498c-.124.124-.29.249-.54.249a.48.48 0 01.291.207c.083.083.166.249.291.415l.332.539h-.664l-.25-.415c-.083-.207-.207-.332-.249-.415-.083-.083-.124-.166-.249-.207a.583.583 0 00-.249-.083h-.125V5.1h.042zm0-2.198v.705h.415c.208 0 .374-.041.457-.083.083-.083.166-.165.166-.29 0-.083-.041-.207-.125-.249-.083-.083-.249-.083-.415-.083h-.498z" fill="#fff"/><path d="M2.364 27.117L0 33.876h74.347l1.202-6.759H2.364z" fill="#0A9F30"/></g><defs><clipPath id="clip0"><path fill="#fff" d="M0 0h162v34H0z"/></clipPath></defs></svg>