<svg width="47" height="108" fill="none" xmlns="http://www.w3.org/2000/svg"><path d="M6.989 26.495l19.338-6.51h14.744L29.295 87H12.158l8.521-48.251-12.158 2.968-1.532-15.222z" fill="url(#paint0_linear)"/><path d="M6.989 26.495l-.424-1.26-1.005.338.106 1.055 1.323-.133zm19.338-6.51v-1.33h-.217l-.207.07.425 1.26zm14.744 0l1.31.23.273-1.56h-1.583v1.33zM29.295 87v1.33h1.117l.193-1.1-1.31-.23zm-17.137 0l-1.309-.231-.276 1.56h1.585V87zm8.521-48.251l1.31.231.354-2.006-1.98.483.316 1.292zM8.521 41.717l-1.323.133.153 1.521 1.485-.363-.315-1.291zM7.413 27.755l19.339-6.51-.849-2.52-19.338 6.51.848 2.52zm18.914-6.44h14.744v-2.66H26.328v2.66zm13.434-1.56L27.986 86.77l2.619.46L42.38 20.215l-2.619-.46zM29.295 85.67H12.158v2.66h17.137v-2.66zm-15.827 1.561l8.52-48.25-2.618-.463-8.52 48.25 2.618.463zm6.896-49.774L8.205 40.425l.63 2.584 12.16-2.968-.631-2.584zm-10.52 4.127L8.312 26.362l-2.646.266L7.198 41.85l2.646-.266z" fill="#fff" fill-opacity=".2"/><ellipse cx="35.63" cy="52.981" rx="32.2" ry="5.207" transform="rotate(-80.31 35.63 52.98)" fill="url(#paint1_diamond)"/><defs><radialGradient id="paint1_diamond" cx="0" cy="0" r="1" gradientUnits="userSpaceOnUse" gradientTransform="matrix(0 5.20728 -32.2004 0 35.63 52.98)"><stop stop-color="#FDFFFD"/><stop offset="1" stop-color="#35FF3D" stop-opacity="0"/></radialGradient><linearGradient id="paint0_linear" x1="14.667" y1="24.33" x2="24.794" y2="77.625" gradientUnits="userSpaceOnUse"><stop stop-color="#04CD25"/><stop offset=".188" stop-color="#019402"/><stop offset=".557" stop-color="#027F03"/><stop offset=".824" stop-color="#046B07"/><stop offset="1" stop-color="#01880E"/></linearGradient></defs></svg>