<svg width="59" height="108" fill="none" xmlns="http://www.w3.org/2000/svg"><path d="M11.914 19.985h43.56L53.08 33.483l-13.5 14.265c3.958 1.596 6.926 4.117 8.904 7.563 1.979 3.383 2.585 7.308 1.82 11.776-1.277 7.148-4.437 12.477-9.479 15.988-5.042 3.574-11.01 5.361-17.902 5.361-5.68 0-10.468-1.276-14.36-3.83C4.67 82.055 1.956 78.289.425 73.31l15.7-8.138c1.34 4.404 4.213 6.606 8.617 6.606 4.978 0 7.85-2.106 8.616-6.319.319-1.914-.096-3.414-1.245-4.5-1.085-1.148-2.808-1.723-5.17-1.723h-3.542l-4.882-9.765 12.445-13.115H9.043l2.872-16.371z" fill="url(#paint0_linear)"/><path d="M11.914 19.985v-1.33h-1.117l-.193 1.1 1.31.23zm43.56 0l1.31.232.276-1.562h-1.586v1.33zM53.08 33.483l.965.914.274-.29.07-.391-1.31-.233zm-13.5 14.265l-.965-.914-1.341 1.418 1.81.73.497-1.234zm8.904 7.563l-1.153.662.005.01 1.148-.672zm1.82 11.776l1.308.234.002-.01-1.31-.224zm-9.479 15.988l-.76-1.091-.009.006.77 1.085zM8.563 84.607l-.729 1.112.73-1.112zM.426 73.31l-.612-1.18-.986.51.327 1.06 1.27-.39zm15.7-8.138l1.272-.387-.465-1.529-1.418.736.611 1.18zm17.233.287l1.308.238.002-.01.001-.01-1.311-.218zm-1.245-4.5l-.966.914.026.027.027.026.913-.966zm-8.712-1.723l-1.189.595.367.735h.822v-1.33zm-4.882-9.765l-.965-.915-.641.676.416.834 1.19-.595zm12.445-13.115l.965.915 2.13-2.245h-3.095v1.33zm-21.923 0l-1.31-.23-.273 1.56h1.583v-1.33zm2.872-15.042h43.56v-2.66h-43.56v2.66zm42.25-1.561L51.772 33.25l2.619.465 2.393-13.5-2.618-.463zm-2.05 12.816L38.617 46.834l1.931 1.828 13.5-14.265-1.932-1.828zm-13.03 16.412c3.703 1.493 6.43 3.824 8.248 6.992l2.306-1.324c-2.138-3.724-5.347-6.436-9.559-8.134l-.995 2.466zm8.253 7.002c1.797 3.07 2.378 6.669 1.657 10.88l2.62.448c.81-4.725.18-8.977-1.981-12.671l-2.296 1.343zm1.658 10.87c-1.226 6.869-4.228 11.858-8.928 15.13l1.519 2.183c5.384-3.748 8.7-9.418 10.027-16.845l-2.618-.468zM40.057 81.99c-4.791 3.397-10.483 5.116-17.133 5.116v2.66c7.135 0 13.379-1.855 18.671-5.606l-1.538-2.17zm-17.133 5.116c-5.48 0-9.999-1.229-13.632-3.611l-1.458 2.224c4.154 2.723 9.208 4.047 15.09 4.047v-2.66zM9.292 83.495C5.69 81.132 3.15 77.638 1.696 72.919l-2.541.782c1.611 5.237 4.496 9.274 8.679 12.018l1.458-2.224zM1.037 74.49l15.701-8.137-1.223-2.361-15.701 8.137 1.223 2.361zm13.817-8.93c.73 2.394 1.913 4.31 3.623 5.622 1.715 1.315 3.836 1.926 6.266 1.926v-2.66c-1.975 0-3.491-.49-4.648-1.377-1.163-.89-2.085-2.277-2.697-4.286l-2.544.774zm9.889 7.548c2.662 0 4.935-.562 6.674-1.838 1.764-1.293 2.82-3.204 3.25-5.573l-2.616-.475c-.336 1.843-1.099 3.091-2.207 3.904-1.133.831-2.786 1.322-5.101 1.322v2.66zm9.927-7.43c.373-2.238-.096-4.224-1.643-5.685l-1.826 1.933c.752.71 1.111 1.723.846 3.315l2.623.437zm-1.589-5.631c-1.438-1.523-3.59-2.14-6.137-2.14v2.66c2.177 0 3.472.53 4.204 1.306l1.933-1.826zm-6.137-2.14h-3.542v2.66h3.543v-2.66zm-2.352.735l-4.883-9.765-2.379 1.189 4.883 9.765 2.379-1.19zm-5.108-8.255L31.93 37.27 30 35.44 17.556 48.555l1.93 1.83zm11.481-15.361H9.043v2.66h21.923v-2.66zm-20.613 1.56l2.872-16.372-2.62-.46-2.872 16.372 2.62.46z" fill="#fff" fill-opacity=".2"/><ellipse cx="33.5" cy="21" rx="25.5" ry="4" fill="url(#paint1_diamond)"/><defs><radialGradient id="paint1_diamond" cx="0" cy="0" r="1" gradientUnits="userSpaceOnUse" gradientTransform="matrix(0 4 -25.5 0 33.5 21)"><stop stop-color="#FDFFFD"/><stop offset="1" stop-color="#35FF3D" stop-opacity="0"/></radialGradient><linearGradient id="paint0_linear" x1="15.667" y1="24.33" x2="25.794" y2="77.625" gradientUnits="userSpaceOnUse"><stop stop-color="#04CD25"/><stop offset=".188" stop-color="#019402"/><stop offset=".557" stop-color="#027F03"/><stop offset=".824" stop-color="#046B07"/><stop offset="1" stop-color="#01880E"/></linearGradient></defs></svg>