<svg width="47" height="108" viewBox="0 0 47 108" fill="none" xmlns="http://www.w3.org/2000/svg">
<path d="M6.98875 26.4947L26.3275 19.9846H41.0709L29.2953 87H12.1585L20.679 38.7489L8.52053 41.7167L6.98875 26.4947Z" fill="url(#paint0_linear)"/>
<path d="M6.98875 26.4947L6.56453 25.2345L5.55959 25.5728L5.66576 26.6278L6.98875 26.4947ZM26.3275 19.9846V18.6549H26.1097L25.9033 18.7244L26.3275 19.9846ZM41.0709 19.9846L42.3805 20.2147L42.6545 18.6549H41.0709V19.9846ZM29.2953 87V88.3297H30.4117L30.6049 87.2301L29.2953 87ZM12.1585 87L10.8491 86.7688L10.5735 88.3297H12.1585V87ZM20.679 38.7489L21.9884 38.9801L22.3427 36.9741L20.3637 37.4572L20.679 38.7489ZM8.52053 41.7167L7.19754 41.8499L7.35061 43.371L8.83583 43.0085L8.52053 41.7167ZM7.41297 27.7549L26.7517 21.2448L25.9033 18.7244L6.56453 25.2345L7.41297 27.7549ZM26.3275 21.3143H41.0709V18.6549H26.3275V21.3143ZM39.7612 19.7545L27.9857 86.7699L30.6049 87.2301L42.3805 20.2147L39.7612 19.7545ZM29.2953 85.6703H12.1585V88.3297H29.2953V85.6703ZM13.4679 87.2312L21.9884 38.9801L19.3696 38.5177L10.8491 86.7688L13.4679 87.2312ZM20.3637 37.4572L8.20522 40.425L8.83583 43.0085L20.9943 40.0407L20.3637 37.4572ZM9.84352 41.5836L8.31174 26.3616L5.66576 26.6278L7.19754 41.8499L9.84352 41.5836Z" fill="white" fill-opacity="0.2"/>
<ellipse cx="35.6303" cy="52.9808" rx="32.2004" ry="5.20728" transform="rotate(-80.3095 35.6303 52.9808)" fill="url(#paint1_diamond)"/>
<defs>
<linearGradient id="paint0_linear" x1="14.6667" y1="24.3297" x2="24.7941" y2="77.6254" gradientUnits="userSpaceOnUse">
<stop stop-color="#04CD25"/>
<stop offset="0.188179" stop-color="#019402"/>
<stop offset="0.557292" stop-color="#027F03"/>
<stop offset="0.824291" stop-color="#046B07"/>
<stop offset="1" stop-color="#01880E"/>
</linearGradient>
<radialGradient id="paint1_diamond" cx="0" cy="0" r="1" gradientUnits="userSpaceOnUse" gradientTransform="translate(35.6303 52.9808) rotate(90) scale(5.20728 32.2004)">
<stop stop-color="#FDFFFD"/>
<stop offset="1" stop-color="#35FF3D" stop-opacity="0"/>
</radialGradient>
</defs>
</svg>
