<svg width="59" height="108" viewBox="0 0 59 108" fill="none" xmlns="http://www.w3.org/2000/svg">
<path d="M11.9139 19.9846H55.4739L53.0805 33.4834L39.5817 47.7481C43.5388 49.3437 46.5066 51.8648 48.4852 55.3113C50.4637 58.694 51.0701 62.6192 50.3042 67.0869C49.0277 74.2352 45.8684 79.5645 40.8263 83.0748C35.7842 86.649 29.8166 88.436 22.9236 88.436C17.2433 88.436 12.4564 87.1596 8.56316 84.6066C4.66989 82.0536 1.95736 78.288 0.425582 73.3097L16.1263 65.1721C17.4666 69.576 20.3387 71.7779 24.7426 71.7779C29.7209 71.7779 32.593 69.6717 33.3589 65.4593C33.678 63.5446 33.2631 62.0447 32.1143 60.9597C31.0293 59.8109 29.306 59.2365 26.9445 59.2365H23.4023L18.5197 49.4714L30.9655 36.3555H9.04185L11.9139 19.9846Z" fill="url(#paint0_linear)"/>
<path d="M11.9139 19.9846V18.6549H10.7972L10.6043 19.7548L11.9139 19.9846ZM55.4739 19.9846L56.7832 20.2167L57.0601 18.6549H55.4739V19.9846ZM53.0805 33.4834L54.0463 34.3974L54.3202 34.1079L54.3898 33.7156L53.0805 33.4834ZM39.5817 47.7481L38.6159 46.8342L37.2747 48.2516L39.0845 48.9813L39.5817 47.7481ZM48.4852 55.3113L47.332 55.9733L47.3374 55.9826L48.4852 55.3113ZM50.3042 67.0869L51.6132 67.3206L51.6147 67.3115L50.3042 67.0869ZM40.8263 83.0748L40.0665 81.9835L40.0573 81.99L40.8263 83.0748ZM8.56316 84.6066L7.83403 85.7185L8.56316 84.6066ZM0.425582 73.3097L-0.186278 72.1292L-1.1717 72.6399L-0.845289 73.7008L0.425582 73.3097ZM16.1263 65.1721L17.3984 64.785L16.9331 63.2563L15.5145 63.9916L16.1263 65.1721ZM33.3589 65.4593L34.6671 65.6972L34.6688 65.6876L34.6704 65.6779L33.3589 65.4593ZM32.1143 60.9597L31.1476 61.8727L31.1737 61.9003L31.2013 61.9264L32.1143 60.9597ZM23.4023 59.2365L22.213 59.8311L22.5805 60.5662H23.4023V59.2365ZM18.5197 49.4714L17.5552 48.5561L16.9136 49.2323L17.3304 50.066L18.5197 49.4714ZM30.9655 36.3555L31.93 37.2708L34.0602 35.0258H30.9655V36.3555ZM9.04185 36.3555L7.73218 36.1257L7.45859 37.6852H9.04185V36.3555ZM11.9139 21.3143H55.4739V18.6549H11.9139V21.3143ZM54.1647 19.7525L51.7713 33.2513L54.3898 33.7156L56.7832 20.2167L54.1647 19.7525ZM52.1147 32.5695L38.6159 46.8342L40.5475 48.6621L54.0463 34.3974L52.1147 32.5695ZM39.0845 48.9813C42.7868 50.4742 45.5132 52.805 47.332 55.9733L49.6383 54.6493C47.5001 50.9246 44.2908 48.2133 40.079 46.5149L39.0845 48.9813ZM47.3374 55.9826C49.1336 59.0536 49.7154 62.652 48.9936 66.8622L51.6147 67.3115C52.4248 62.5863 51.7938 58.3344 49.6329 54.64L47.3374 55.9826ZM48.9952 66.8531C47.7686 73.722 44.7669 78.7112 40.0666 81.9836L41.586 84.1661C46.9699 80.4178 50.2868 74.7483 51.6131 67.3206L48.9952 66.8531ZM40.0573 81.99C35.2656 85.3867 29.5743 87.1064 22.9236 87.1064V89.7657C30.0589 89.7657 36.3027 87.9112 41.5952 84.1596L40.0573 81.99ZM22.9236 87.1064C17.4449 87.1064 12.9254 85.877 9.2923 83.4947L7.83403 85.7185C11.9875 88.4421 17.0417 89.7657 22.9236 89.7657V87.1064ZM9.2923 83.4947C5.689 81.1319 3.14865 77.6383 1.69645 72.9187L-0.845289 73.7008C0.766079 78.9377 3.65078 82.9754 7.83403 85.7185L9.2923 83.4947ZM1.03744 74.4902L16.7382 66.3527L15.5145 63.9916L-0.186278 72.1292L1.03744 74.4902ZM14.8543 65.5593C15.5832 67.9543 16.7669 69.8709 18.4766 71.1817C20.1917 72.4966 22.3133 73.1076 24.7426 73.1076V70.4483C22.768 70.4483 21.2517 69.9583 20.0946 69.0713C18.9323 68.1801 18.0098 66.7938 17.3984 64.785L14.8543 65.5593ZM24.7426 73.1076C27.405 73.1076 29.6778 72.5457 31.4167 71.2705C33.1807 69.977 34.2363 68.0663 34.6671 65.6972L32.0506 65.2215C31.7155 67.0648 30.9522 68.3134 29.8441 69.126C28.7109 69.957 27.0585 70.4483 24.7426 70.4483V73.1076ZM34.6704 65.6779C35.0434 63.44 34.5736 61.4535 33.0273 59.993L31.2013 61.9264C31.9526 62.636 32.3125 63.6493 32.0473 65.2407L34.6704 65.6779ZM33.081 60.0468C31.6431 58.5243 29.4913 57.9068 26.9445 57.9068V60.5662C29.1208 60.5662 30.4155 61.0975 31.1476 61.8727L33.081 60.0468ZM26.9445 57.9068H23.4023V60.5662H26.9445V57.9068ZM24.5916 58.6418L19.709 48.8767L17.3304 50.066L22.213 59.8311L24.5916 58.6418ZM19.4843 50.3866L31.93 37.2708L30.0009 35.4403L17.5552 48.5561L19.4843 50.3866ZM30.9655 35.0258H9.04185V37.6852H30.9655V35.0258ZM10.3515 36.5853L13.2236 20.2144L10.6043 19.7548L7.73218 36.1257L10.3515 36.5853Z" fill="white" fill-opacity="0.2"/>
<ellipse cx="33.5" cy="21" rx="25.5" ry="4" fill="url(#paint1_diamond)"/>
<defs>
<linearGradient id="paint0_linear" x1="15.6667" y1="24.3297" x2="25.7941" y2="77.6254" gradientUnits="userSpaceOnUse">
<stop stop-color="#04CD25"/>
<stop offset="0.188179" stop-color="#019402"/>
<stop offset="0.557292" stop-color="#027F03"/>
<stop offset="0.824291" stop-color="#046B07"/>
<stop offset="1" stop-color="#01880E"/>
</linearGradient>
<radialGradient id="paint1_diamond" cx="0" cy="0" r="1" gradientUnits="userSpaceOnUse" gradientTransform="translate(33.5 21) rotate(90) scale(4 25.5)">
<stop stop-color="#FDFFFD"/>
<stop offset="1" stop-color="#35FF3D" stop-opacity="0"/>
</radialGradient>
</defs>
</svg>
