<svg width="23" height="22" viewBox="0 0 23 22" fill="none" xmlns="http://www.w3.org/2000/svg">
<g clip-path="url(#clip0)">
<g clip-path="url(#clip1)">
<path d="M15.4896 0.335571H7.47724C3.79023 0.335571 0.800293 3.32551 0.800293 7.01252V15.0249C0.800293 18.7119 3.79023 21.7018 7.47724 21.7018H15.4896C19.1766 21.7018 22.1665 18.7119 22.1665 15.0249V7.01252C22.1665 3.32551 19.1766 0.335571 15.4896 0.335571ZM20.1634 15.0249C20.1634 17.6022 18.0669 19.6987 15.4896 19.6987H7.47724C4.89994 19.6987 2.80338 17.6022 2.80338 15.0249V7.01252C2.80338 4.43522 4.89994 2.33866 7.47724 2.33866H15.4896C18.0669 2.33866 20.1634 4.43522 20.1634 7.01252V15.0249Z" fill="white"/>
<path d="M11.4834 5.67706C8.53353 5.67706 6.14185 8.06875 6.14185 11.0186C6.14185 13.9685 8.53353 16.3602 11.4834 16.3602C14.4333 16.3602 16.825 13.9685 16.825 11.0186C16.825 8.06875 14.4333 5.67706 11.4834 5.67706ZM11.4834 14.3571C9.64324 14.3571 8.14493 12.8588 8.14493 11.0186C8.14493 9.17712 9.64324 7.68015 11.4834 7.68015C13.3236 7.68015 14.8219 9.17712 14.8219 11.0186C14.8219 12.8588 13.3236 14.3571 11.4834 14.3571Z" fill="white"/>
<path d="M17.4926 5.677C17.8614 5.677 18.1603 5.37807 18.1603 5.00931C18.1603 4.64055 17.8614 4.34161 17.4926 4.34161C17.1239 4.34161 16.825 4.64055 16.825 5.00931C16.825 5.37807 17.1239 5.677 17.4926 5.677Z" fill="white"/>
</g>
</g>
<defs>
<clipPath id="clip0">
<rect width="21.3662" height="21.3662" fill="white" transform="translate(0.800293 0.335571)"/>
</clipPath>
<clipPath id="clip1">
<rect width="21.3662" height="21.3662" fill="white" transform="translate(0.800293 0.335571)"/>
</clipPath>
</defs>
</svg>
