<svg width="25" height="25" viewBox="0 0 25 25" fill="none" xmlns="http://www.w3.org/2000/svg">
<path d="M1.30091 11.9604C3.55738 10.7175 6.07622 9.68011 8.42971 8.63744C12.4786 6.92963 16.5436 5.25142 20.6496 3.68903C21.4485 3.42281 22.8839 3.16246 23.0247 4.34636C22.9475 6.02216 22.6306 7.68815 22.4131 9.35413C21.8611 13.0178 21.2231 16.6689 20.601 20.3205C20.3867 21.5368 18.863 22.1665 17.888 21.3881C15.545 19.8054 13.184 18.2382 10.8709 16.6189C10.1131 15.8489 10.8158 14.7433 11.4925 14.1935C13.4223 12.2917 15.4688 10.6759 17.2978 8.6758C17.7911 7.48442 16.3334 8.48849 15.8526 8.79612C13.2107 10.6167 10.6335 12.5484 7.84813 14.1484C6.42536 14.9317 4.7671 14.2623 3.34497 13.8253C2.06985 13.2974 0.20133 12.7655 1.30078 11.9605L1.30091 11.9604Z" fill="white"/>
</svg>
