<svg width="22" height="22" viewBox="0 0 22 22" fill="none" xmlns="http://www.w3.org/2000/svg">
<g clip-path="url(#clip0)">
<path d="M21.2437 15.0614C21.1862 14.9666 20.831 14.2056 19.1216 12.6415C17.332 11.0037 17.5724 11.2696 19.7279 8.43762C21.0407 6.7129 21.5655 5.65963 21.4013 5.20936C21.245 4.78015 20.2794 4.89337 20.2794 4.89337L17.0689 4.91181C17.0689 4.91181 16.8312 4.88021 16.6536 4.98422C16.4813 5.08691 16.3705 5.3239 16.3705 5.3239C16.3705 5.3239 15.8617 6.65892 15.1832 7.79381C13.7529 10.1887 13.18 10.3151 12.9463 10.1663C12.4027 9.82004 12.539 8.77335 12.539 8.0308C12.539 5.70966 12.8955 4.74197 11.8432 4.49182C11.4933 4.40887 11.2369 4.35357 10.3434 4.34436C9.19757 4.33251 8.22667 4.34831 7.67778 4.61294C7.31186 4.78936 7.03007 5.18302 7.20235 5.20541C7.41469 5.23305 7.89546 5.33311 8.15054 5.67543C8.48041 6.11648 8.46839 7.10919 8.46839 7.10919C8.46839 7.10919 8.65803 9.8411 8.02634 10.1808C7.59231 10.4138 6.99802 9.93853 5.72263 7.76485C5.06957 6.65233 4.57544 5.42133 4.57544 5.42133C4.57544 5.42133 4.48062 5.19224 4.31101 5.0698C4.10535 4.92102 3.81688 4.87363 3.81688 4.87363L0.763959 4.89206C0.763959 4.89206 0.305886 4.90522 0.137615 5.1014C-0.01196 5.2765 0.125595 5.63725 0.125595 5.63725C0.125595 5.63725 2.51612 11.1498 5.22182 13.9291C7.70449 16.4767 10.5224 16.3095 10.5224 16.3095H11.7991C11.7991 16.3095 12.1851 16.2674 12.3814 16.058C12.563 15.8658 12.5563 15.5051 12.5563 15.5051C12.5563 15.5051 12.5309 13.8159 13.3269 13.567C14.1108 13.3222 15.1178 15.1996 16.1848 15.9224C16.9915 16.4688 17.6045 16.349 17.6045 16.349L20.4584 16.3095C20.4584 16.3095 21.9515 16.2186 21.2437 15.0614Z" fill="white"/>
</g>
<defs>
<clipPath id="clip0">
<rect width="21.3662" height="21.3662" fill="white" transform="translate(0.0678711 0.335571)"/>
</clipPath>
</defs>
</svg>
